<svg width="56" height="56" viewBox="0 0 56 56" fill="none" xmlns="http://www.w3.org/2000/svg">
    <path d="M28 0.666656C31.6246 0.666656 35.1008 2.10653 37.6638 4.66953C40.2268 7.23253 41.6667 10.7087 41.6667 14.3333C41.6667 17.9579 40.2268 21.4341 37.6638 23.9971C35.1008 26.5601 31.6246 28 28 28C24.3754 28 20.8992 26.5601 18.3362 23.9971C15.7732 21.4341 14.3334 17.9579 14.3334 14.3333C14.3334 10.7087 15.7732 7.23253 18.3362 4.66953C20.8992 2.10653 24.3754 0.666656 28 0.666656ZM28 34.8333C43.1017 34.8333 55.3334 40.9492 55.3334 48.5V55.3333H0.666687V48.5C0.666687 40.9492 12.8984 34.8333 28 34.8333Z"
          fill="#FAFAFA"/>
</svg>
